<svg width="6" height="10" viewBox="0 0 6 10" fill="none" xmlns="http://www.w3.org/2000/svg">
<path d="M4.77438 9.26511L4.77438 5.72205e-05" stroke="black" stroke-width="0.4"/>
<path d="M4.63194 8.44403C4.71374 8.4309 4.76941 8.35395 4.75628 8.27216C4.74316 8.19036 4.66621 8.13469 4.58441 8.14781L4.60818 8.29592L4.63194 8.44403ZM4.60818 8.29592L4.58441 8.14781L0.976061 8.72678L0.999825 8.87488L1.02359 9.02299L4.63194 8.44403L4.60818 8.29592Z" fill="black"/>
<line x1="4.9983" y1="9.14811" x2="1.04798" y2="9.7766" stroke="black" stroke-width="0.3"/>
<path d="M4.59008 7.4842C4.67199 7.47184 4.72837 7.39541 4.716 7.31349C4.70364 7.23158 4.62721 7.1752 4.54529 7.18757L4.56769 7.33588L4.59008 7.4842ZM4.56769 7.33588L4.54529 7.18757L2.4826 7.49897L2.50499 7.64729L2.52738 7.7956L4.59008 7.4842L4.56769 7.33588Z" fill="black"/>
</svg>
