<svg width="11" height="12" viewBox="0 0 11 12" fill="none" xmlns="http://www.w3.org/2000/svg">
<g id="Copyright">
<path id="Vector" d="M5.5 10.125C7.77817 10.125 9.625 8.27817 9.625 6C9.625 3.72183 7.77817 1.875 5.5 1.875C3.22183 1.875 1.375 3.72183 1.375 6C1.375 8.27817 3.22183 10.125 5.5 10.125Z" stroke="black" stroke-linecap="round" stroke-linejoin="round"/>
<path id="Vector_2" d="M6.87504 7.03134C6.65856 7.31986 6.35679 7.53296 6.01248 7.64046C5.66817 7.74796 5.29876 7.74441 4.95657 7.63031C4.61439 7.51622 4.31677 7.29735 4.10588 7.00473C3.89498 6.7121 3.7815 6.36053 3.78149 5.99983C3.78149 5.63912 3.89497 5.28756 4.10586 4.99493C4.31676 4.70229 4.61437 4.48343 4.95655 4.36933C5.29874 4.25522 5.66814 4.25167 6.01246 4.35917C6.35678 4.46666 6.65854 4.67976 6.87503 4.96828" stroke="black" stroke-linecap="round" stroke-linejoin="round"/>
</g>
</svg>
