<svg width="24" height="25" viewBox="0 0 24 25" fill="none" xmlns="http://www.w3.org/2000/svg">
<g id="_Twitter">
<path id="Vector" d="M21.057 8.05077C21.0663 8.26197 21.0663 8.46357 21.0663 8.67478C21.0756 15.078 16.3711 22.47 7.76784 22.47C5.23039 22.47 2.73924 21.7116 0.600006 20.2908C0.970437 20.3388 1.34087 20.358 1.7113 20.358C3.81349 20.358 5.86012 19.6284 7.5178 18.2748C5.51747 18.2364 3.75793 16.8828 3.14672 14.9052C3.85053 15.0492 4.57287 15.0204 5.25817 14.8188C3.08189 14.3772 1.51682 12.39 1.50756 10.0764C1.50756 10.0572 1.50756 10.038 1.50756 10.0188C2.15581 10.3932 2.88741 10.6044 3.62828 10.6236C1.58165 9.20278 0.942654 6.37077 2.1836 4.15316C4.56361 7.18677 8.06418 9.02038 11.8241 9.22198C11.4444 7.54197 11.963 5.77557 13.1761 4.58516C15.0561 2.75156 18.0195 2.84756 19.7976 4.79636C20.844 4.58516 21.8535 4.18196 22.7703 3.61556C22.4184 4.73876 21.6868 5.68917 20.7144 6.29397C21.6405 6.17877 22.548 5.91957 23.4 5.53557C22.7703 6.51477 21.9738 7.35957 21.057 8.05077Z" fill="#1D9BF0"/>
</g>
</svg>
